<svg xmlns="http://www.w3.org/2000/svg" viewBox="0 0 800 350">
  <defs>
    <linearGradient id="bg_tl" x1="0%" y1="0%" x2="100%" y2="100%">
      <stop offset="0%" style="stop-color:#121c14;stop-opacity:1" />
      <stop offset="100%" style="stop-color:#1e3222;stop-opacity:1" />
    </linearGradient>
  </defs>
  <rect width="800" height="350" fill="url(#bg_tl)"/>
  <!-- Model architecture bars (frozen vs trainable) -->
  <text x="80" y="45" font-family="monospace" font-size="13" fill="#aaa">TinyLlama-1.1B layers</text>
  <!-- Frozen layers -->
  <rect x="80" y="60" width="180" height="18" rx="3" fill="#2c3e2c" stroke="#3a5a3a" stroke-width="1"/>
  <text x="90" y="73" font-family="monospace" font-size="10" fill="#5a7a5a">frozen</text>
  <rect x="80" y="84" width="180" height="18" rx="3" fill="#2c3e2c" stroke="#3a5a3a" stroke-width="1"/>
  <text x="90" y="97" font-family="monospace" font-size="10" fill="#5a7a5a">frozen</text>
  <rect x="80" y="108" width="180" height="18" rx="3" fill="#2c3e2c" stroke="#3a5a3a" stroke-width="1"/>
  <text x="90" y="121" font-family="monospace" font-size="10" fill="#5a7a5a">frozen</text>
  <!-- LoRA adapter -->
  <rect x="80" y="132" width="180" height="18" rx="3" fill="#1a3d1a" stroke="#27ae60" stroke-width="2"/>
  <text x="90" y="145" font-family="monospace" font-size="10" fill="#5ba85a">LoRA adapter</text>
  <rect x="270" y="132" width="40" height="18" rx="3" fill="#27ae60" opacity="0.85"/>
  <text x="290" y="145" font-family="monospace" font-size="9" fill="white" text-anchor="middle">A·B</text>
  <rect x="80" y="156" width="180" height="18" rx="3" fill="#2c3e2c" stroke="#3a5a3a" stroke-width="1"/>
  <text x="90" y="169" font-family="monospace" font-size="10" fill="#5a7a5a">frozen</text>
  <rect x="80" y="180" width="180" height="18" rx="3" fill="#1a3d1a" stroke="#27ae60" stroke-width="2"/>
  <text x="90" y="193" font-family="monospace" font-size="10" fill="#5ba85a">LoRA adapter</text>
  <rect x="270" y="180" width="40" height="18" rx="3" fill="#27ae60" opacity="0.85"/>
  <text x="290" y="193" font-family="monospace" font-size="9" fill="white" text-anchor="middle">A·B</text>
  <!-- Metrics panel right -->
  <rect x="430" y="50" width="310" height="220" rx="8" fill="#121c14" stroke="#27ae60" stroke-width="1.5" opacity="0.8"/>
  <text x="585" y="78" font-family="monospace" font-size="13" fill="#5ba85a" text-anchor="middle">Fine-tuning Results</text>
  <!-- BLEU improvement -->
  <text x="455" y="115" font-family="monospace" font-size="12" fill="#aaa">BLEU score</text>
  <rect x="455" y="122" width="60" height="16" rx="2" fill="#2c3e2c" stroke="#3a5a3a" stroke-width="1"/>
  <text x="525" y="134" font-family="monospace" font-size="11" fill="#aaa">→</text>
  <rect x="540" y="122" width="155" height="16" rx="2" fill="#27ae60" opacity="0.8"/>
  <text x="620" y="134" font-family="monospace" font-size="11" fill="white" text-anchor="middle">+268% ↑</text>
  <!-- ROUGE-1 improvement -->
  <text x="455" y="162" font-family="monospace" font-size="12" fill="#aaa">ROUGE-1</text>
  <rect x="455" y="169" width="60" height="16" rx="2" fill="#2c3e2c" stroke="#3a5a3a" stroke-width="1"/>
  <text x="525" y="181" font-family="monospace" font-size="11" fill="#aaa">→</text>
  <rect x="540" y="169" width="100" height="16" rx="2" fill="#1abc9c" opacity="0.8"/>
  <text x="590" y="181" font-family="monospace" font-size="11" fill="white" text-anchor="middle">+77% ↑</text>
  <text x="455" y="215" font-family="monospace" font-size="11" fill="#5a7a5a">Dataset: gardening Q&amp;A</text>
  <text x="455" y="232" font-family="monospace" font-size="11" fill="#5a7a5a">Rank: 4 / 16  trainable params</text>
  <text x="400" y="332" font-family="monospace" font-size="13" fill="#5ba85a" text-anchor="middle" opacity="0.8">Python · HuggingFace PEFT · LoRA · TinyLlama-1.1B · TRL</text>
</svg>
