<svg xmlns="http://www.w3.org/2000/svg" viewBox="0 0 800 350">
  <defs>
    <linearGradient id="bg" x1="0%" y1="0%" x2="100%" y2="100%">
      <stop offset="0%" style="stop-color:#1a2744;stop-opacity:1" />
      <stop offset="100%" style="stop-color:#2d4a7a;stop-opacity:1" />
    </linearGradient>
  </defs>
  <rect width="800" height="350" fill="url(#bg)"/>
  <!-- Bookshelves -->
  <rect x="40" y="260" width="720" height="8" rx="3" fill="#4a6fa5" opacity="0.6"/>
  <rect x="40" y="160" width="720" height="8" rx="3" fill="#4a6fa5" opacity="0.6"/>
  <!-- Books row 1 -->
  <rect x="60"  y="175" width="22" height="77" rx="2" fill="#e07b39"/>
  <rect x="86"  y="183" width="18" height="69" rx="2" fill="#5ba85a"/>
  <rect x="108" y="178" width="25" height="74" rx="2" fill="#c94f4f"/>
  <rect x="137" y="185" width="16" height="67" rx="2" fill="#9b59b6"/>
  <rect x="157" y="175" width="20" height="77" rx="2" fill="#2980b9"/>
  <rect x="181" y="180" width="28" height="72" rx="2" fill="#e8c53a"/>
  <rect x="213" y="177" width="19" height="75" rx="2" fill="#e07b39"/>
  <rect x="236" y="184" width="23" height="68" rx="2" fill="#1abc9c"/>
  <rect x="263" y="175" width="17" height="77" rx="2" fill="#c94f4f"/>
  <rect x="284" y="182" width="26" height="70" rx="2" fill="#3498db"/>
  <rect x="314" y="178" width="20" height="74" rx="2" fill="#9b59b6"/>
  <rect x="338" y="183" width="22" height="69" rx="2" fill="#27ae60"/>
  <rect x="364" y="175" width="18" height="77" rx="2" fill="#e07b39"/>
  <rect x="386" y="180" width="24" height="72" rx="2" fill="#e74c3c"/>
  <rect x="414" y="177" width="20" height="75" rx="2" fill="#2980b9"/>
  <!-- Books row 2 -->
  <rect x="60"  y="75" width="22" height="77" rx="2" fill="#2980b9"/>
  <rect x="86"  y="83" width="18" height="69" rx="2" fill="#e8c53a"/>
  <rect x="108" y="78" width="25" height="74" rx="2" fill="#1abc9c"/>
  <rect x="137" y="85" width="16" height="67" rx="2" fill="#e07b39"/>
  <rect x="157" y="75" width="20" height="77" rx="2" fill="#c94f4f"/>
  <rect x="181" y="80" width="28" height="72" rx="2" fill="#9b59b6"/>
  <!-- Search circle (right side) -->
  <circle cx="620" cy="175" r="80" fill="none" stroke="#7eb3f5" stroke-width="5" opacity="0.7"/>
  <circle cx="620" cy="175" r="60" fill="none" stroke="#7eb3f5" stroke-width="2" opacity="0.4"/>
  <line x1="678" y1="233" x2="710" y2="265" stroke="#7eb3f5" stroke-width="6" stroke-linecap="round" opacity="0.8"/>
  <!-- AI dots inside search -->
  <circle cx="600" cy="165" r="5" fill="#7eb3f5" opacity="0.9"/>
  <circle cx="625" cy="155" r="4" fill="#5ba85a" opacity="0.9"/>
  <circle cx="640" cy="175" r="5" fill="#e07b39" opacity="0.9"/>
  <circle cx="615" cy="190" r="4" fill="#9b59b6" opacity="0.9"/>
  <line x1="600" y1="165" x2="625" y2="155" stroke="#7eb3f5" stroke-width="1.5" opacity="0.6"/>
  <line x1="625" y1="155" x2="640" y2="175" stroke="#7eb3f5" stroke-width="1.5" opacity="0.6"/>
  <line x1="600" y1="165" x2="615" y2="190" stroke="#7eb3f5" stroke-width="1.5" opacity="0.6"/>
  <line x1="640" y1="175" x2="615" y2="190" stroke="#7eb3f5" stroke-width="1.5" opacity="0.6"/>
  <!-- Label -->
  <text x="400" y="330" font-family="monospace" font-size="13" fill="#7eb3f5" text-anchor="middle" opacity="0.8">Python · MCP · Sentence Transformers · Claude Desktop</text>
</svg>
