<svg xmlns="http://www.w3.org/2000/svg" viewBox="0 0 800 350">
  <defs>
    <linearGradient id="bg4" x1="0%" y1="0%" x2="100%" y2="100%">
      <stop offset="0%" style="stop-color:#1a0a2e;stop-opacity:1" />
      <stop offset="100%" style="stop-color:#2d1b5e;stop-opacity:1" />
    </linearGradient>
  </defs>
  <rect width="800" height="350" fill="url(#bg4)"/>
  <!-- Protein graph (left) - nodes as amino acids -->
  <line x1="120" y1="100" x2="180" y2="80"  stroke="#9b59b6" stroke-width="2.5" opacity="0.8"/>
  <line x1="180" y1="80"  x2="250" y2="110" stroke="#9b59b6" stroke-width="2.5" opacity="0.8"/>
  <line x1="250" y1="110" x2="220" y2="180" stroke="#9b59b6" stroke-width="2.5" opacity="0.8"/>
  <line x1="220" y1="180" x2="150" y2="200" stroke="#9b59b6" stroke-width="2.5" opacity="0.8"/>
  <line x1="150" y1="200" x2="120" y2="100" stroke="#9b59b6" stroke-width="2.5" opacity="0.8"/>
  <line x1="180" y1="80"  x2="220" y2="180" stroke="#8e44ad" stroke-width="1.5" opacity="0.5"/>
  <line x1="120" y1="100" x2="220" y2="180" stroke="#8e44ad" stroke-width="1.5" opacity="0.5"/>
  <line x1="250" y1="110" x2="150" y2="200" stroke="#8e44ad" stroke-width="1.5" opacity="0.5"/>
  <!-- Amino acid nodes -->
  <circle cx="120" cy="100" r="16" fill="#8e44ad" stroke="#d7bde2" stroke-width="2"/>
  <circle cx="180" cy="80"  r="14" fill="#2980b9" stroke="#a9cce3" stroke-width="2"/>
  <circle cx="250" cy="110" r="18" fill="#c0392b" stroke="#f1948a" stroke-width="2"/>
  <circle cx="220" cy="180" r="15" fill="#27ae60" stroke="#82e0aa" stroke-width="2"/>
  <circle cx="150" cy="200" r="16" fill="#e67e22" stroke="#f8c471" stroke-width="2"/>
  <text x="120" y="105" font-family="monospace" font-size="10" fill="white" text-anchor="middle">Ala</text>
  <text x="180" y="85"  font-family="monospace" font-size="10" fill="white" text-anchor="middle">Gly</text>
  <text x="250" y="115" font-family="monospace" font-size="10" fill="white" text-anchor="middle">Pro</text>
  <text x="220" y="185" font-family="monospace" font-size="10" fill="white" text-anchor="middle">Ser</text>
  <text x="150" y="205" font-family="monospace" font-size="10" fill="white" text-anchor="middle">Val</text>
  <!-- VAE architecture (centre) -->
  <!-- Encoder -->
  <rect x="310" y="80" width="60" height="190" rx="6" fill="#2c3e50" stroke="#9b59b6" stroke-width="2" opacity="0.9"/>
  <text x="340" y="135" font-family="monospace" font-size="11" fill="#d7bde2" text-anchor="middle">E</text>
  <text x="340" y="152" font-family="monospace" font-size="11" fill="#d7bde2" text-anchor="middle">n</text>
  <text x="340" y="169" font-family="monospace" font-size="11" fill="#d7bde2" text-anchor="middle">c</text>
  <!-- Latent space -->
  <ellipse cx="430" cy="175" rx="40" ry="65" fill="#1a0a2e" stroke="#f39c12" stroke-width="2.5" opacity="0.9"/>
  <circle cx="420" cy="160" r="5" fill="#f39c12" opacity="0.7"/>
  <circle cx="435" cy="175" r="4" fill="#e74c3c" opacity="0.7"/>
  <circle cx="425" cy="190" r="5" fill="#2ecc71" opacity="0.7"/>
  <circle cx="440" cy="162" r="3" fill="#3498db" opacity="0.7"/>
  <text x="430" y="248" font-family="monospace" font-size="10" fill="#f39c12" text-anchor="middle">z ~ N(μ,σ)</text>
  <!-- Decoder -->
  <rect x="480" y="80" width="60" height="190" rx="6" fill="#2c3e50" stroke="#27ae60" stroke-width="2" opacity="0.9"/>
  <text x="510" y="135" font-family="monospace" font-size="11" fill="#82e0aa" text-anchor="middle">D</text>
  <text x="510" y="152" font-family="monospace" font-size="11" fill="#82e0aa" text-anchor="middle">e</text>
  <text x="510" y="169" font-family="monospace" font-size="11" fill="#82e0aa" text-anchor="middle">c</text>
  <!-- Arrows -->
  <line x1="375" y1="175" x2="390" y2="175" stroke="#9b59b6" stroke-width="2" marker-end="url(#arr1)"/>
  <line x1="472" y1="175" x2="480" y2="175" stroke="#27ae60" stroke-width="2"/>
  <!-- Generated protein (right) -->
  <line x1="600" y1="110" x2="660" y2="90"  stroke="#27ae60" stroke-width="2.5" opacity="0.8"/>
  <line x1="660" y1="90"  x2="720" y2="130" stroke="#27ae60" stroke-width="2.5" opacity="0.8"/>
  <line x1="720" y1="130" x2="700" y2="200" stroke="#27ae60" stroke-width="2.5" opacity="0.8"/>
  <line x1="700" y1="200" x2="630" y2="210" stroke="#27ae60" stroke-width="2.5" opacity="0.8"/>
  <line x1="630" y1="210" x2="600" y2="110" stroke="#27ae60" stroke-width="2.5" opacity="0.8"/>
  <circle cx="600" cy="110" r="16" fill="#27ae60" stroke="#82e0aa" stroke-width="2"/>
  <circle cx="660" cy="90"  r="14" fill="#2980b9" stroke="#82e0aa" stroke-width="2"/>
  <circle cx="720" cy="130" r="18" fill="#8e44ad" stroke="#82e0aa" stroke-width="2"/>
  <circle cx="700" cy="200" r="15" fill="#e67e22" stroke="#82e0aa" stroke-width="2"/>
  <circle cx="630" cy="210" r="14" fill="#c0392b" stroke="#82e0aa" stroke-width="2"/>
  <text x="660" y="250" font-family="monospace" font-size="11" fill="#82e0aa" text-anchor="middle">Generated</text>
  <text x="400" y="325" font-family="monospace" font-size="13" fill="#bb8fce" text-anchor="middle">PyTorch Geometric · GAT · VAE · Graph Neural Networks</text>
</svg>
