<svg xmlns="http://www.w3.org/2000/svg" viewBox="0 0 800 350">
  <defs>
    <linearGradient id="bg3" x1="0%" y1="0%" x2="100%" y2="100%">
      <stop offset="0%" style="stop-color:#1a3a1a;stop-opacity:1" />
      <stop offset="100%" style="stop-color:#2d5a2d;stop-opacity:1" />
    </linearGradient>
  </defs>
  <rect width="800" height="350" fill="url(#bg3)"/>
  <!-- Apple -->
  <circle cx="110" cy="130" r="48" fill="#c0392b"/>
  <path d="M110 82 Q118 68 128 72" stroke="#27ae60" stroke-width="4" fill="none" stroke-linecap="round"/>
  <ellipse cx="98" cy="118" rx="14" ry="20" fill="#e74c3c" opacity="0.5" transform="rotate(-20,98,118)"/>
  <!-- Banana -->
  <path d="M200 170 Q240 100 290 120 Q270 150 230 185 Z" fill="#f1c40f"/>
  <path d="M200 170 Q240 100 290 120" stroke="#e67e22" stroke-width="3" fill="none"/>
  <!-- Orange -->
  <circle cx="380" cy="130" r="45" fill="#e67e22"/>
  <ellipse cx="367" cy="118" rx="12" ry="18" fill="#f39c12" opacity="0.5" transform="rotate(-15,367,118)"/>
  <path d="M380 85 Q388 72 398 76" stroke="#27ae60" stroke-width="4" fill="none" stroke-linecap="round"/>
  <!-- Neural network (right side) -->
  <!-- Input layer -->
  <circle cx="520" cy="90"  r="12" fill="#2980b9" stroke="#3498db" stroke-width="2"/>
  <circle cx="520" cy="135" r="12" fill="#2980b9" stroke="#3498db" stroke-width="2"/>
  <circle cx="520" cy="180" r="12" fill="#2980b9" stroke="#3498db" stroke-width="2"/>
  <circle cx="520" cy="225" r="12" fill="#2980b9" stroke="#3498db" stroke-width="2"/>
  <!-- Hidden layer 1 -->
  <circle cx="610" cy="105" r="12" fill="#8e44ad" stroke="#9b59b6" stroke-width="2"/>
  <circle cx="610" cy="155" r="12" fill="#8e44ad" stroke="#9b59b6" stroke-width="2"/>
  <circle cx="610" cy="205" r="12" fill="#8e44ad" stroke="#9b59b6" stroke-width="2"/>
  <!-- Output layer -->
  <circle cx="700" cy="125" r="12" fill="#27ae60" stroke="#2ecc71" stroke-width="2"/>
  <circle cx="700" cy="175" r="12" fill="#c0392b" stroke="#e74c3c" stroke-width="2"/>
  <!-- Connections -->
  <line x1="532" y1="90"  x2="598" y2="105" stroke="#3498db" stroke-width="1" opacity="0.4"/>
  <line x1="532" y1="90"  x2="598" y2="155" stroke="#3498db" stroke-width="1" opacity="0.4"/>
  <line x1="532" y1="90"  x2="598" y2="205" stroke="#3498db" stroke-width="1" opacity="0.4"/>
  <line x1="532" y1="135" x2="598" y2="105" stroke="#3498db" stroke-width="1" opacity="0.4"/>
  <line x1="532" y1="135" x2="598" y2="155" stroke="#3498db" stroke-width="1" opacity="0.4"/>
  <line x1="532" y1="135" x2="598" y2="205" stroke="#3498db" stroke-width="1" opacity="0.4"/>
  <line x1="532" y1="180" x2="598" y2="105" stroke="#3498db" stroke-width="1" opacity="0.4"/>
  <line x1="532" y1="180" x2="598" y2="155" stroke="#3498db" stroke-width="1" opacity="0.4"/>
  <line x1="532" y1="180" x2="598" y2="205" stroke="#3498db" stroke-width="1" opacity="0.4"/>
  <line x1="532" y1="225" x2="598" y2="105" stroke="#3498db" stroke-width="1" opacity="0.4"/>
  <line x1="532" y1="225" x2="598" y2="155" stroke="#3498db" stroke-width="1" opacity="0.4"/>
  <line x1="532" y1="225" x2="598" y2="205" stroke="#3498db" stroke-width="1" opacity="0.4"/>
  <line x1="622" y1="105" x2="688" y2="125" stroke="#9b59b6" stroke-width="1.5" opacity="0.5"/>
  <line x1="622" y1="105" x2="688" y2="175" stroke="#9b59b6" stroke-width="1.5" opacity="0.5"/>
  <line x1="622" y1="155" x2="688" y2="125" stroke="#9b59b6" stroke-width="1.5" opacity="0.5"/>
  <line x1="622" y1="155" x2="688" y2="175" stroke="#9b59b6" stroke-width="1.5" opacity="0.5"/>
  <line x1="622" y1="205" x2="688" y2="125" stroke="#9b59b6" stroke-width="1.5" opacity="0.5"/>
  <line x1="622" y1="205" x2="688" y2="175" stroke="#9b59b6" stroke-width="1.5" opacity="0.5"/>
  <!-- Output labels -->
  <text x="720" y="130" font-family="monospace" font-size="13" fill="#2ecc71">Apple</text>
  <text x="720" y="180" font-family="monospace" font-size="13" fill="#e74c3c">Orange</text>
  <!-- Arrow to recipe bubble -->
  <line x1="400" y1="200" x2="450" y2="270" stroke="#f1c40f" stroke-width="2" stroke-dasharray="5,3" opacity="0.7"/>
  <rect x="450" y="270" width="200" height="40" rx="8" fill="#2c3e50" stroke="#f1c40f" stroke-width="1.5" opacity="0.8"/>
  <text x="550" y="295" font-family="monospace" font-size="12" fill="#f1c40f" text-anchor="middle">"Here's a recipe for you..."</text>
  <text x="400" y="340" font-family="monospace" font-size="13" fill="#7fb87f" text-anchor="middle">PyTorch · Transfer Learning · OpenAI API · Jupyter</text>
</svg>
